<svg width="121" height="15" viewBox="0 0 121 15" fill="none" xmlns="http://www.w3.org/2000/svg">
<path d="M6.33014 11.1862L3.03433 6.85698V11.1862H0.646255V1.38257H3.03433V5.68389L6.30221 1.38257H9.10925L5.31068 6.18664L9.2489 11.1862H6.33014Z" fill="black"/>
<path d="M17.7296 7.16421C17.7296 7.38766 17.7156 7.62041 17.6877 7.86248H12.2831C12.3203 8.34661 12.4739 8.71902 12.7439 8.97971C13.0232 9.23108 13.3631 9.35677 13.7634 9.35677C14.3593 9.35677 14.7736 9.10539 15.0063 8.60264H17.548C17.4177 9.11471 17.1803 9.57556 16.8358 9.98521C16.5006 10.3949 16.077 10.7161 15.5649 10.9488C15.0529 11.1816 14.4803 11.298 13.8472 11.298C13.0838 11.298 12.4041 11.135 11.8083 10.8092C11.2124 10.4833 10.7469 10.0178 10.4117 9.41263C10.0766 8.80747 9.90898 8.09989 9.90898 7.2899C9.90898 6.47991 10.0719 5.77234 10.3978 5.16717C10.7329 4.56201 11.1984 4.0965 11.7943 3.77064C12.3902 3.44478 13.0745 3.28185 13.8472 3.28185C14.6013 3.28185 15.2717 3.44013 15.8582 3.75667C16.4448 4.07322 16.901 4.52477 17.2268 5.11131C17.562 5.69785 17.7296 6.38216 17.7296 7.16421ZM15.2856 6.53577C15.2856 6.12612 15.146 5.80027 14.8667 5.5582C14.5874 5.31614 14.2382 5.1951 13.8193 5.1951C13.4189 5.1951 13.0791 5.31148 12.7998 5.54424C12.5298 5.77699 12.3622 6.1075 12.297 6.53577H15.2856Z" fill="black"/>
<path d="M23.7376 3.30978C24.65 3.30978 25.3762 3.60771 25.9162 4.20356C26.4655 4.79011 26.7401 5.6001 26.7401 6.63353V11.1862H24.366V6.95473C24.366 6.43336 24.231 6.02837 23.961 5.73975C23.691 5.45113 23.3279 5.30682 22.8717 5.30682C22.4155 5.30682 22.0525 5.45113 21.7825 5.73975C21.5125 6.02837 21.3775 6.43336 21.3775 6.95473V11.1862H18.9894V3.39357H21.3775V4.42701C21.6195 4.08253 21.9454 3.81254 22.355 3.61702C22.7647 3.4122 23.2255 3.30978 23.7376 3.30978Z" fill="black"/>
<path d="M30.6341 9.21712H34.0137V11.1862H27.9667V9.28694L31.2066 5.36269H27.9946V3.39357H33.9439V5.29286L30.6341 9.21712Z" fill="black"/>
<path d="M36.5288 2.58359C36.1098 2.58359 35.7653 2.46255 35.4953 2.22049C35.2346 1.96911 35.1043 1.66187 35.1043 1.29878C35.1043 0.926367 35.2346 0.61913 35.4953 0.377064C35.7653 0.125688 36.1098 0 36.5288 0C36.9384 0 37.2736 0.125688 37.5343 0.377064C37.8042 0.61913 37.9393 0.926367 37.9393 1.29878C37.9393 1.66187 37.8042 1.96911 37.5343 2.22049C37.2736 2.46255 36.9384 2.58359 36.5288 2.58359ZM37.7158 3.39357V11.1862H35.3277V3.39357H37.7158Z" fill="black"/>
<path d="M46.7922 7.16421C46.7922 7.38766 46.7782 7.62041 46.7503 7.86248H41.3457C41.3829 8.34661 41.5366 8.71902 41.8066 8.97971C42.0859 9.23108 42.4257 9.35677 42.826 9.35677C43.4219 9.35677 43.8362 9.10539 44.0689 8.60264H46.6106C46.4803 9.11471 46.2429 9.57556 45.8984 9.98521C45.5632 10.3949 45.1396 10.7161 44.6276 10.9488C44.1155 11.1816 43.5429 11.298 42.9098 11.298C42.1464 11.298 41.4667 11.135 40.8709 10.8092C40.275 10.4833 39.8095 10.0178 39.4743 9.41263C39.1392 8.80747 38.9716 8.09989 38.9716 7.2899C38.9716 6.47991 39.1345 5.77234 39.4604 5.16717C39.7955 4.56201 40.2611 4.0965 40.8569 3.77064C41.4528 3.44478 42.1371 3.28185 42.9098 3.28185C43.6639 3.28185 44.3343 3.44013 44.9208 3.75667C45.5074 4.07322 45.9636 4.52477 46.2894 5.11131C46.6246 5.69785 46.7922 6.38216 46.7922 7.16421ZM44.3482 6.53577C44.3482 6.12612 44.2086 5.80027 43.9293 5.5582C43.65 5.31614 43.3008 5.1951 42.8819 5.1951C42.4815 5.1951 42.1417 5.31148 41.8624 5.54424C41.5924 5.77699 41.4248 6.1075 41.3597 6.53577H44.3482Z" fill="black"/>
<path d="M53.3995 3.29582V5.27889H56.5976V7.12232H53.3995V9.27298H57.0165V11.1862H51.0115V1.38257H57.0165V3.29582H53.3995Z" fill="black"/>
<path d="M68.5102 3.30978C69.4785 3.30978 70.2466 3.60306 70.8145 4.1896C71.3917 4.77614 71.6804 5.59079 71.6804 6.63353V11.1862H69.3063V6.95473C69.3063 6.45198 69.1713 6.06561 68.9013 5.79561C68.6406 5.51631 68.2775 5.37665 67.812 5.37665C67.3464 5.37665 66.9787 5.51631 66.7087 5.79561C66.448 6.06561 66.3177 6.45198 66.3177 6.95473V11.1862H63.9436V6.95473C63.9436 6.45198 63.8086 6.06561 63.5386 5.79561C63.2779 5.51631 62.9148 5.37665 62.4493 5.37665C61.9838 5.37665 61.616 5.51631 61.346 5.79561C61.0853 6.06561 60.955 6.45198 60.955 6.95473V11.1862H58.5669V3.39357H60.955V4.37115C61.197 4.04529 61.5136 3.78926 61.9046 3.60305C62.2957 3.40754 62.7379 3.30978 63.2313 3.30978C63.8179 3.30978 64.3392 3.43547 64.7954 3.68685C65.261 3.93822 65.6241 4.29667 65.8847 4.76218C66.1547 4.33391 66.5225 3.98477 66.988 3.71478C67.4535 3.44478 67.9609 3.30978 68.5102 3.30978Z" fill="black"/>
<path d="M75.7386 4.49684C75.9713 4.13374 76.2926 3.84047 76.7022 3.61702C77.1119 3.39357 77.5913 3.28185 78.1406 3.28185C78.783 3.28185 79.3649 3.44478 79.8863 3.77064C80.4077 4.0965 80.8173 4.56201 81.1152 5.16717C81.4225 5.77234 81.5761 6.47526 81.5761 7.27594C81.5761 8.07662 81.4225 8.78419 81.1152 9.39867C80.8173 10.0038 80.4077 10.474 79.8863 10.8092C79.3649 11.135 78.783 11.298 78.1406 11.298C77.6006 11.298 77.1212 11.1862 76.7022 10.9628C76.2926 10.7393 75.9713 10.4507 75.7386 10.0969V14.901H73.3505V3.39357H75.7386V4.49684ZM79.1461 7.27594C79.1461 6.68008 78.9786 6.21457 78.6434 5.8794C78.3175 5.53493 77.9125 5.36269 77.4284 5.36269C76.9536 5.36269 76.5486 5.53493 76.2134 5.8794C75.8876 6.22388 75.7246 6.69405 75.7246 7.2899C75.7246 7.88576 75.8876 8.35592 76.2134 8.7004C76.5486 9.04488 76.9536 9.21712 77.4284 9.21712C77.9032 9.21712 78.3082 9.04488 78.6434 8.7004C78.9786 8.34661 79.1461 7.87179 79.1461 7.27594Z" fill="black"/>
<path d="M85.217 4.69235C85.4963 4.26408 85.8455 3.92891 86.2644 3.68685C86.6834 3.43547 87.1489 3.30978 87.6609 3.30978V5.83751H87.0046C86.4087 5.83751 85.9618 5.96785 85.6639 6.22854C85.366 6.47991 85.217 6.9268 85.217 7.56921V11.1862H82.8289V3.39357H85.217V4.69235Z" fill="black"/>
<path d="M96.1482 7.16421C96.1482 7.38766 96.1342 7.62041 96.1063 7.86248H90.7017C90.7389 8.34661 90.8925 8.71902 91.1625 8.97971C91.4418 9.23108 91.7817 9.35677 92.182 9.35677C92.7779 9.35677 93.1922 9.10539 93.4249 8.60264H95.9666C95.8363 9.11471 95.5989 9.57556 95.2544 9.98521C94.9192 10.3949 94.4956 10.7161 93.9835 10.9488C93.4715 11.1816 92.8989 11.298 92.2658 11.298C91.5024 11.298 90.8227 11.135 90.2269 10.8092C89.631 10.4833 89.1655 10.0178 88.8303 9.41263C88.4952 8.80747 88.3276 8.09989 88.3276 7.2899C88.3276 6.47991 88.4905 5.77234 88.8164 5.16717C89.1515 4.56201 89.617 4.0965 90.2129 3.77064C90.8087 3.44478 91.493 3.28185 92.2658 3.28185C93.0199 3.28185 93.6903 3.44013 94.2768 3.75667C94.8633 4.07322 95.3195 4.52477 95.6454 5.11131C95.9806 5.69785 96.1482 6.38216 96.1482 7.16421ZM93.7042 6.53577C93.7042 6.12612 93.5646 5.80027 93.2853 5.5582C93.006 5.31614 92.6568 5.1951 92.2379 5.1951C91.8375 5.1951 91.4977 5.31148 91.2184 5.54424C90.9484 5.77699 90.7808 6.1075 90.7156 6.53577H93.7042Z" fill="black"/>
<path d="M100.578 11.298C99.8985 11.298 99.2933 11.1816 98.7626 10.9488C98.2319 10.7161 97.813 10.3995 97.5057 9.99918C97.1985 9.58953 97.0263 9.13332 96.989 8.63057H99.3492C99.3771 8.90057 99.5028 9.11936 99.7262 9.28694C99.9497 9.45453 100.224 9.53832 100.55 9.53832C100.848 9.53832 101.076 9.48246 101.234 9.37074C101.402 9.2497 101.486 9.09608 101.486 8.90988C101.486 8.68643 101.369 8.52351 101.137 8.42109C100.904 8.30937 100.527 8.18834 100.006 8.05799C99.4469 7.92765 98.9814 7.79265 98.609 7.653C98.2366 7.50404 97.9154 7.27594 97.6454 6.9687C97.3754 6.65215 97.2404 6.22854 97.2404 5.69785C97.2404 5.25096 97.3614 4.84597 97.6035 4.48287C97.8549 4.11046 98.218 3.81719 98.6928 3.60305C99.1769 3.38892 99.7495 3.28185 100.411 3.28185C101.388 3.28185 102.156 3.52392 102.715 4.00805C103.283 4.49218 103.609 5.13459 103.692 5.93527H101.486C101.449 5.66527 101.328 5.45113 101.123 5.29286C100.927 5.13459 100.667 5.05545 100.341 5.05545C100.061 5.05545 99.8473 5.11131 99.6983 5.22303C99.5493 5.32545 99.4749 5.46975 99.4749 5.65596C99.4749 5.8794 99.5912 6.04699 99.824 6.15871C100.066 6.27043 100.438 6.38216 100.941 6.49388C101.518 6.64284 101.989 6.7918 102.352 6.94077C102.715 7.08042 103.031 7.31318 103.301 7.63903C103.581 7.95558 103.725 8.38385 103.734 8.92385C103.734 9.38005 103.604 9.7897 103.343 10.1528C103.092 10.5066 102.724 10.7859 102.24 10.9907C101.765 11.1955 101.211 11.298 100.578 11.298Z" fill="black"/>
<path d="M104.72 7.27594C104.72 6.47526 104.869 5.77234 105.167 5.16717C105.475 4.56201 105.889 4.0965 106.41 3.77064C106.932 3.44478 107.514 3.28185 108.156 3.28185C108.705 3.28185 109.185 3.39357 109.594 3.61702C110.013 3.84047 110.335 4.13374 110.558 4.49684V3.39357H112.946V11.1862H110.558V10.083C110.325 10.4461 109.999 10.7393 109.58 10.9628C109.171 11.1862 108.691 11.298 108.142 11.298C107.509 11.298 106.932 11.135 106.41 10.8092C105.889 10.474 105.475 10.0038 105.167 9.39867C104.869 8.78419 104.72 8.07662 104.72 7.27594ZM110.558 7.2899C110.558 6.69405 110.39 6.22388 110.055 5.8794C109.729 5.53493 109.329 5.36269 108.854 5.36269C108.379 5.36269 107.974 5.53493 107.639 5.8794C107.313 6.21457 107.15 6.68008 107.15 7.27594C107.15 7.87179 107.313 8.34661 107.639 8.7004C107.974 9.04488 108.379 9.21712 108.854 9.21712C109.329 9.21712 109.729 9.04488 110.055 8.7004C110.39 8.35592 110.558 7.88576 110.558 7.2899Z" fill="black"/>
<path d="M117.844 11.298C117.164 11.298 116.559 11.1816 116.028 10.9488C115.498 10.7161 115.079 10.3995 114.771 9.99918C114.464 9.58953 114.292 9.13332 114.255 8.63057H116.615C116.643 8.90057 116.769 9.11936 116.992 9.28694C117.215 9.45453 117.49 9.53832 117.816 9.53832C118.114 9.53832 118.342 9.48246 118.5 9.37074C118.668 9.2497 118.752 9.09608 118.752 8.90988C118.752 8.68643 118.635 8.52351 118.402 8.42109C118.17 8.30937 117.793 8.18834 117.271 8.05799C116.713 7.92765 116.247 7.79265 115.875 7.653C115.502 7.50404 115.181 7.27594 114.911 6.9687C114.641 6.65215 114.506 6.22854 114.506 5.69785C114.506 5.25096 114.627 4.84597 114.869 4.48287C115.121 4.11046 115.484 3.81719 115.959 3.60305C116.443 3.38892 117.015 3.28185 117.676 3.28185C118.654 3.28185 119.422 3.52392 119.981 4.00805C120.548 4.49218 120.874 5.13459 120.958 5.93527H118.752C118.714 5.66527 118.593 5.45113 118.388 5.29286C118.193 5.13459 117.932 5.05545 117.606 5.05545C117.327 5.05545 117.113 5.11131 116.964 5.22303C116.815 5.32545 116.741 5.46975 116.741 5.65596C116.741 5.8794 116.857 6.04699 117.09 6.15871C117.332 6.27043 117.704 6.38216 118.207 6.49388C118.784 6.64284 119.254 6.7918 119.617 6.94077C119.981 7.08042 120.297 7.31318 120.567 7.63903C120.846 7.95558 120.991 8.38385 121 8.92385C121 9.38005 120.87 9.7897 120.609 10.1528C120.358 10.5066 119.99 10.7859 119.506 10.9907C119.031 11.1955 118.477 11.298 117.844 11.298Z" fill="black"/>
</svg>
